# xmcd
#
# Track frame offsets:
#	150
#	15393
#	27239
#	47151
#	63771
#	85363
#	98921
#	123246
#	135557
#	152524
#
# Disc length: 2303 seconds
#
# Revision: 0
# Processed by: cddbd v1.4PL0 Copyright (c) Steve Scherf et al.
# Submitted via: EasyCDDAExtractor 4.6.0.1
#
DISCID=7208fd0a
DTITLE=Jamie Gumm - Foever Is Never Too Long
DYEAR=1900
DGENRE=
TTITLE0=Forever Is Never Too Long
TTITLE1=Respect
TTITLE2=I Hope You Dance
TTITLE3=Born To Fly
TTITLE4=His Eye Is On The Sparrow
TTITLE5=Tryin' Not To Think About You
TTITLE6=Over The Rainbow
TTITLE7=San Antonio Rose
TTITLE8=The Blood Will Never Lose Its Power
TTITLE9=I Will Always Love You
EXTD=
EXTT0=
EXTT1=
EXTT2=
EXTT3=
EXTT4=
EXTT5=
EXTT6=
EXTT7=
EXTT8=
EXTT9=
PLAYORDER=
